<?xml version="1.0" encoding="utf-8"?>
<!-- Generator: Adobe Illustrator 23.0.2, SVG Export Plug-In . SVG Version: 6.00 Build 0)  -->
<svg version="1.1" id="Ebene_1" xmlns="http://www.w3.org/2000/svg" xmlns:xlink="http://www.w3.org/1999/xlink" x="0px" y="0px"
	 viewBox="0 0 28.63 28.63" style="enable-background:new 0 0 28.63 28.63;" xml:space="preserve">
<style type="text/css">
	.st0{fill:#FFFFFF;}
</style>
<g id="Gruppe_3" transform="translate(-664.272 -86.959)">
	<g id="Gruppe_1754" transform="translate(665.687 88.373)">
		<g id="Gruppe_1756" transform="translate(0 0)">
			<path class="st0" d="M0.06,26.95c-0.36,0-0.72-0.14-0.99-0.41c-0.54-0.55-0.54-1.43,0.01-1.97L24.65-0.76
				c0.55-0.54,1.43-0.54,1.97,0.01c0.54,0.55,0.54,1.43-0.01,1.97L1.04,26.54C0.77,26.81,0.42,26.95,0.06,26.95z"/>
			<path class="st0" d="M25.51,27.07c-0.36,0-0.72-0.14-0.99-0.41L-0.81,1.09C-1.35,0.54-1.34-0.34-0.8-0.88
				c0.54-0.54,1.42-0.54,1.97,0.01L26.5,24.7c0.54,0.55,0.54,1.43-0.01,1.97C26.22,26.93,25.86,27.07,25.51,27.07z"/>
		</g>
	</g>
</g>
</svg>
