<?xml version="1.0" encoding="utf-8"?>
<!-- Generator: Adobe Illustrator 23.0.3, SVG Export Plug-In . SVG Version: 6.00 Build 0)  -->
<svg version="1.1" id="Ebene_1" xmlns="http://www.w3.org/2000/svg" xmlns:xlink="http://www.w3.org/1999/xlink" x="0px" y="0px"
	 viewBox="0 0 28.6 28.6" style="enable-background:new 0 0 28.6 28.6;" xml:space="preserve">
<style type="text/css">
	.st0{fill-rule:evenodd;clip-rule:evenodd;fill:#8300FF;}
</style>
<g id="Gruppe_861" transform="translate(-1572.556 -725)">
	<g id="Gruppe_862" transform="translate(559 -3397)">
		<g id="Gruppe_758" transform="translate(-22.089 3734)">
			<path id="Pfad_5" class="st0" d="M1049.9,390.7c1.9-0.1,3.8,0,5.7,0.2c0.9,0,1.8,0.1,2.7,0.5c1.2,0.5,2.1,1.5,2.7,2.7
				c0.3,0.9,0.5,1.8,0.5,2.7c0,1.4,0.2,1.9,0.2,5.7c0.1,1.9,0,3.8-0.2,5.7c0,0.9-0.2,1.8-0.5,2.7c-0.6,1.2-1.5,2.1-2.7,2.7
				c-0.8,0.3-1.8,0.5-2.7,0.5c-1.4,0-1.9,0.2-5.7,0.2c-1.9,0.1-3.8,0-5.7-0.2c-0.9,0-1.8-0.1-2.7-0.5c-1.2-0.5-2.1-1.5-2.7-2.7
				c-0.3-0.9-0.5-1.8-0.5-2.7c0-1.4-0.2-1.9-0.2-5.7c-0.1-1.9,0-3.8,0.2-5.7c0-0.9,0.2-1.8,0.5-2.7c0.3-0.6,0.7-1.1,1.1-1.6
				c0.4-0.5,0.9-0.9,1.6-1.1c0.8-0.3,1.8-0.5,2.7-0.5C1046.1,390.7,1048,390.6,1049.9,390.7 M1049.9,388.2c-1.9-0.1-3.9,0-5.8,0.2
				c-1.2,0-2.3,0.2-3.5,0.6c-0.9,0.3-1.8,0.9-2.5,1.6c-0.7,0.7-1.3,1.6-1.6,2.5c-0.5,1.1-0.7,2.3-0.6,3.5c-0.2,1.9-0.2,3.9-0.2,5.8
				c-0.1,1.9,0,3.9,0.2,5.8c0,1.2,0.2,2.4,0.6,3.5c0.3,1,0.8,1.8,1.6,2.5c0.7,0.7,1.6,1.3,2.5,1.6c1.1,0.4,2.3,0.6,3.5,0.6
				c1.9,0.2,3.9,0.2,5.8,0.2c1.9,0.1,3.9,0,5.8-0.2c1.2,0,2.3-0.2,3.5-0.6c1.9-0.7,3.4-2.2,4.1-4.1c0.4-1.1,0.6-2.3,0.6-3.5
				c0-1.6,0.2-2,0.2-5.8c0.1-1.9,0-3.9-0.2-5.8c0-1.2-0.2-2.4-0.6-3.5c-0.3-1-0.8-1.8-1.6-2.5c-0.7-0.7-1.6-1.3-2.5-1.6
				c-1.1-0.4-2.3-0.6-3.5-0.6C1053.8,388.2,1051.8,388.1,1049.9,388.2 M1049.9,395.1c-3.9-0.1-7.2,3.1-7.2,7c0,0.1,0,0.2,0,0.2
				c0,4,3.2,7.2,7.2,7.2s7.2-3.2,7.2-7.2S1053.9,395.1,1049.9,395.1L1049.9,395.1 M1049.9,407.1c-2.6,0-4.7-2-4.7-4.5
				c0-0.1,0-0.1,0-0.2c-0.1-2.6,2-4.7,4.6-4.7c0.1,0,0.1,0,0.2,0c2.6,0,4.7,2,4.7,4.5c0,0.1,0,0.1,0,0.2c0.1,2.6-2,4.7-4.6,4.7
				C1050,407.1,1050,407.1,1049.9,407.1 M1057.4,393.1c-0.9,0-1.7,0.8-1.7,1.7c0,1,0.8,1.7,1.7,1.7c0.9,0,1.7-0.8,1.7-1.7
				C1059.2,393.9,1058.4,393.1,1057.4,393.1"/>
		</g>
	</g>
</g>
</svg>
