<?xml version="1.0" encoding="utf-8"?>
<!-- Generator: Adobe Illustrator 23.0.2, SVG Export Plug-In . SVG Version: 6.00 Build 0)  -->
<svg version="1.1" id="Ebene_1" xmlns="http://www.w3.org/2000/svg" xmlns:xlink="http://www.w3.org/1999/xlink" x="0px" y="0px"
	 viewBox="0 0 28.63 28.63" style="enable-background:new 0 0 28.63 28.63;" xml:space="preserve">
<style type="text/css">
	.st0{fill-rule:evenodd;clip-rule:evenodd;fill:#FFFFFF;}
</style>
<g id="Gruppe_861" transform="translate(-1572.556 -725)">
	<g id="Gruppe_862" transform="translate(559 -3397)">
		<g id="Gruppe_758" transform="translate(-22.089 3734)">
			<path id="Pfad_5" class="st0" d="M1049.91,390.72c1.89-0.07,3.78-0.02,5.66,0.16c0.91-0.01,1.82,0.15,2.67,0.47
				c1.18,0.55,2.12,1.49,2.67,2.67c0.32,0.85,0.48,1.76,0.47,2.67c0,1.41,0.16,1.89,0.16,5.66c0.07,1.89,0.02,3.78-0.16,5.66
				c0.01,0.91-0.15,1.82-0.47,2.67c-0.55,1.18-1.49,2.12-2.67,2.67c-0.85,0.32-1.76,0.48-2.67,0.47c-1.41,0-1.89,0.16-5.66,0.16
				c-1.89,0.07-3.78,0.02-5.66-0.16c-0.91,0.01-1.82-0.15-2.67-0.47c-1.18-0.55-2.12-1.49-2.67-2.67c-0.32-0.85-0.48-1.76-0.47-2.67
				c0-1.41-0.16-1.89-0.16-5.66c-0.07-1.89-0.02-3.78,0.16-5.66c-0.01-0.91,0.15-1.82,0.47-2.67c0.27-0.58,0.65-1.11,1.1-1.57
				c0.37-0.55,0.93-0.94,1.57-1.1c0.85-0.32,1.76-0.48,2.67-0.47C1046.13,390.71,1048.02,390.65,1049.91,390.72 M1049.91,388.21
				c-1.94-0.07-3.88-0.02-5.81,0.16c-1.18,0-2.35,0.21-3.46,0.63c-0.95,0.31-1.82,0.85-2.51,1.57c-0.72,0.7-1.26,1.56-1.57,2.51
				c-0.49,1.08-0.71,2.27-0.63,3.46c-0.17,1.93-0.23,3.87-0.16,5.81c-0.07,1.94-0.02,3.88,0.16,5.81c0,1.18,0.21,2.35,0.63,3.46
				c0.31,0.95,0.85,1.82,1.57,2.51c0.7,0.72,1.56,1.26,2.51,1.57c1.1,0.42,2.28,0.63,3.46,0.63c1.93,0.17,3.88,0.23,5.82,0.16
				c1.94,0.07,3.88,0.02,5.81-0.16c1.18,0,2.35-0.21,3.46-0.63c1.92-0.66,3.43-2.17,4.09-4.09c0.42-1.1,0.63-2.28,0.63-3.46
				c0-1.57,0.16-2.04,0.16-5.82c0.07-1.94,0.02-3.88-0.16-5.81c0-1.18-0.21-2.35-0.63-3.46c-0.31-0.95-0.85-1.82-1.57-2.51
				c-0.7-0.72-1.56-1.26-2.51-1.57c-1.1-0.42-2.28-0.63-3.46-0.63C1053.79,388.19,1051.84,388.14,1049.91,388.21 M1049.91,395.12
				c-3.93-0.06-7.16,3.07-7.23,6.99c0,0.08,0,0.16,0,0.23c0,3.99,3.24,7.23,7.23,7.23c3.99,0,7.23-3.24,7.23-7.23
				S1053.9,395.12,1049.91,395.12L1049.91,395.12 M1049.91,407.07c-2.56,0.05-4.67-1.99-4.71-4.55c0-0.06,0-0.11,0-0.17
				c-0.05-2.56,1.99-4.67,4.55-4.71c0.06,0,0.11,0,0.17,0c2.56-0.05,4.67,1.99,4.71,4.55c0,0.06,0,0.11,0,0.17
				c0.05,2.56-1.99,4.67-4.55,4.71C1050.02,407.07,1049.96,407.07,1049.91,407.07 M1057.45,393.08c-0.95,0-1.73,0.77-1.73,1.73
				c0,0.95,0.77,1.73,1.73,1.73c0.95,0,1.73-0.77,1.73-1.73C1059.17,393.86,1058.4,393.09,1057.45,393.08"/>
		</g>
	</g>
</g>
</svg>
