<?xml version="1.0" encoding="utf-8"?>
<!-- Generator: Adobe Illustrator 23.0.2, SVG Export Plug-In . SVG Version: 6.00 Build 0)  -->
<svg version="1.1" id="Ebene_1" xmlns="http://www.w3.org/2000/svg" xmlns:xlink="http://www.w3.org/1999/xlink" x="0px" y="0px"
	 viewBox="0 0 28.63 28.63" style="enable-background:new 0 0 28.63 28.63;" xml:space="preserve">
<style type="text/css">
	.st0{fill:#82FFFF;}
	.st1{fill:#FFFFFF;}
</style>
<g id="Gruppe_1085" transform="translate(969 -816)">
	<circle id="Ellipse_56" class="st0" cx="-954.63" cy="830.35" r="14.17"/>
	<path class="st1" d="M-959.75,838.42c-0.6,0-0.76-0.22-0.89-0.39c-0.13-0.17-0.37-0.64,0.12-1.28c0.27-0.35,0.37-0.58,0.41-0.7
		c-1.83-1.41-2.95-3.63-2.96-5.98c0-4.32,3.77-7.83,8.4-7.83c4.63,0,8.4,3.54,8.4,7.89c0,4.31-3.77,7.82-8.4,7.82
		c-0.72-0.01-1.44-0.1-2.13-0.28C-958.33,838.23-959.22,838.42-959.75,838.42z M-954.68,823.73c-3.81,0-6.9,2.84-6.9,6.33
		c0.01,1.95,0.97,3.8,2.56,4.94c0.16,0.13,0.71,0.65,0.24,1.74c0.49-0.14,1.1-0.33,1.67-0.55l0.23-0.09l0.24,0.07
		c0.64,0.19,1.3,0.28,1.97,0.29c3.8,0,6.9-2.84,6.9-6.33C-947.77,826.6-950.87,823.73-954.68,823.73z"/>
</g>
</svg>
