<?xml version="1.0" encoding="utf-8"?>
<!-- Generator: Adobe Illustrator 23.0.2, SVG Export Plug-In . SVG Version: 6.00 Build 0)  -->
<svg version="1.1" id="Ebene_1" xmlns="http://www.w3.org/2000/svg" xmlns:xlink="http://www.w3.org/1999/xlink" x="0px" y="0px"
	 viewBox="0 0 28.63 28.63" style="enable-background:new 0 0 28.63 28.63;" xml:space="preserve">
<style type="text/css">
	.st0{fill:#82FFFF;}
	.st1{fill:none;}
	.st2{fill:#FFFFFF;}
</style>
<g id="Gruppe_40" transform="translate(969 -816)">
	<circle id="Ellipse_56_1_" class="st0" cx="-954.68" cy="830.31" r="14.17"/>
	<g id="Rechteck_742" transform="translate(-961.247 827.627)">
		<path class="st1" d="M0.41-2.81h12.3c1.24,0,2.24,1,2.24,2.24v7.27c0,1.24-1,2.24-2.24,2.24H0.41c-1.24,0-2.24-1-2.24-2.24v-7.27
			C-1.82-1.81-0.82-2.81,0.41-2.81z"/>
		<path class="st2" d="M12.72,8.93H0.41c-1.23,0-2.24-1-2.24-2.24v-7.27c0-1.23,1-2.24,2.24-2.24h12.3c1.23,0,2.24,1,2.24,2.24V6.7
			C14.96,7.93,13.95,8.93,12.72,8.93z M0.41-1.32C0-1.32-0.33-0.99-0.33-0.58V6.7c0,0.41,0.33,0.75,0.75,0.75h12.3
			c0.41,0,0.75-0.33,0.75-0.75v-7.27c0-0.41-0.33-0.75-0.75-0.75H0.41z"/>
	</g>
	<g id="Gruppe_697" transform="translate(-958.575 828.912)">
		<path class="st2" d="M3.8,2.42c-0.16,0-0.32-0.05-0.45-0.15l-6.31-4.82C-3.28-2.8-3.34-3.26-3.1-3.59
			c0.25-0.33,0.72-0.39,1.05-0.14L3.8,0.74l5.86-4.47c0.33-0.25,0.8-0.19,1.05,0.14c0.25,0.33,0.19,0.8-0.14,1.05L4.26,2.27
			C4.12,2.37,3.96,2.42,3.8,2.42z"/>
	</g>
</g>
</svg>
