<?xml version="1.0" encoding="utf-8"?>
<!-- Generator: Adobe Illustrator 23.0.2, SVG Export Plug-In . SVG Version: 6.00 Build 0)  -->
<svg version="1.1" id="Ebene_1" xmlns="http://www.w3.org/2000/svg" xmlns:xlink="http://www.w3.org/1999/xlink" x="0px" y="0px"
	 viewBox="0 0 28.35 18.71" style="enable-background:new 0 0 28.35 18.71;" xml:space="preserve">
<style type="text/css">
	.st0{fill:#FFFFFF;}
</style>
<g id="Gruppe_5" transform="translate(-25.5 -26.5)">
	<path class="st0" d="M52.77,28.75H26.61c-0.6,0-1.09-0.49-1.09-1.09c0-0.6,0.49-1.09,1.09-1.09h26.17c0.6,0,1.09,0.49,1.09,1.09
		C53.86,28.26,53.38,28.75,52.77,28.75z"/>
	<path class="st0" d="M52.77,37.47H26.61c-0.6,0-1.09-0.49-1.09-1.09s0.49-1.09,1.09-1.09h26.17c0.6,0,1.09,0.49,1.09,1.09
		S53.38,37.47,52.77,37.47z"/>
	<path class="st0" d="M39.69,45.1H26.61c-0.6,0-1.09-0.49-1.09-1.09c0-0.6,0.49-1.09,1.09-1.09h13.08c0.6,0,1.09,0.49,1.09,1.09
		C40.78,44.62,40.29,45.1,39.69,45.1z"/>
</g>
</svg>
