<?xml version="1.0" encoding="utf-8"?>
<!-- Generator: Adobe Illustrator 23.0.3, SVG Export Plug-In . SVG Version: 6.00 Build 0)  -->
<svg version="1.1" id="Ebene_1" xmlns="http://www.w3.org/2000/svg" xmlns:xlink="http://www.w3.org/1999/xlink" x="0px" y="0px"
	 viewBox="0 0 566.9 141.7" style="enable-background:new 0 0 566.9 141.7;" xml:space="preserve">
<style type="text/css">
	.st0{fill:#FFFFFF;}
</style>
<g>
	<polygon class="st0" points="566.9,141.7 566.9,141.7 566.9,88.7 566.9,88.7 	"/>
	<path class="st0" d="M0,0v88.7h0c0.2,0.1,4.9,2.7,13.3,6.7c0.6,0.3,1.1,0.5,1.8,0.8c1.4,0.7,2.9,1.3,4.3,2l0,0l0,0l0.1,0l0.1,0l0,0
		l0,0l0.1,0l0,0h0c3.7,1.7,7.5,3.3,11.3,4.9l0,0l0.1,0l0.1,0l0,0l0,0l0.1,0l0.1,0l0,0l0,0l0.1,0l0,0l0,0h0c0.4,0.2,0.8,0.3,1.2,0.5
		l0.8,0.3l0,0l0.1,0l0,0l0,0l0,0l0.1,0l0,0l0,0c6.9,2.8,14,5.5,21.1,8.1l0,0l0.1,0l0.1,0l0,0l0,0l0.1,0l0,0l0,0l0.1,0l0,0l0,0l0.1,0
		l0,0l0,0l0.1,0l0,0l0.1,0l0,0l0,0l0,0l0,0l0.1,0l0.1,0l0,0l0,0l0,0l0,0l0.1,0l0.1,0l0,0l0,0l0.2,0.1l0,0l0,0l0.2,0.1l0,0l0.1,0
		l0.1,0l0,0l0,0l0.1,0l0.1,0l0,0l0,0l0.1,0l0.1,0l0,0l0,0l0.2,0.1l0,0l0,0l0.1,0l0.1,0l0,0l0,0l0.1,0l0.1,0l0.1,0l0,0l0.1,0l0,0
		l0.2,0.1l0,0l0,0c5.8,2,11.8,3.9,17.6,5.7l0,0l0,0l0.1,0l0.1,0l0,0l0,0l0.1,0l0.2,0l0,0l0,0l0,0l0.2,0.1l0,0
		c10.7,3.2,21.5,6.1,32.2,8.5l0,0l0.2,0l0.1,0l0,0l0,0c2.6,0.6,5.2,1.1,7.8,1.7c1,0.2,2,0.4,2.9,0.6c11.7,2.3,23.5,4.2,35,5.5
		c12.6,1.5,25.2,2.3,37.5,2.5c5.6,0.1,11.2,0.2,16.6,0.2c2.3,0,4.6,0,6.9,0c16.4-0.1,31.5-0.8,46.1-1.9c14-1.1,27.4-2.6,41-4.7
		c11.3-1.7,22.5-3.8,35.5-6.6c12.2-2.6,24.2-5.4,37-8.4h0l0.1,0l0,0l0,0c2.9-0.7,6-1.4,9-2.1c10.4-2.4,22.8-5.3,36.2-8.1l0,0l0,0
		l0.2,0l0,0l0,0l0.1,0l0.1,0l0.1,0l0.1,0l0.1,0l0.1,0l0,0l0,0l0.1,0l0.1,0l0.1,0l0.1,0c18.5-3.9,37.5-7.3,56.7-10
		c13.7-2,27.6-3.6,41.2-4.9l1.1-0.1l0.2,0l0.2,0h0h0l0.3,0h0h0l0.1,0l0.1,0h0h0l0.1,0h0l0.2,0l0.1,0l0.1,0l0.1,0l0.1,0l0.1,0l0.1,0
		l0.1,0l0.1,0l0.2,0l0.1,0l0.1,0l0.2,0l0.1,0l0.1,0l0.1,0l0.7-0.1h0h0l1.2-0.1c12.3-1.1,22.2-1.7,28.4-2c1.3-0.1,2.6-0.1,3.9-0.2
		c5.3-0.2,8.4-0.3,8.5-0.3v0h0V0H0z"/>
</g>
</svg>
