<?xml version="1.0" encoding="utf-8"?>
<!-- Generator: Adobe Illustrator 23.0.3, SVG Export Plug-In . SVG Version: 6.00 Build 0)  -->
<svg version="1.1" id="Ebene_1" xmlns="http://www.w3.org/2000/svg" xmlns:xlink="http://www.w3.org/1999/xlink" x="0px" y="0px"
	 viewBox="0 0 283.5 56.7" style="enable-background:new 0 0 283.5 56.7;" xml:space="preserve">
<style type="text/css">
	.st0{fill:#8300FF;}
</style>
<g id="Gruppe_1760" transform="translate(0 9.89)">
	<g>
		<g id="Gruppe_1759" transform="translate(0 -9.89)">
			<g id="Gruppe_1757" transform="translate(0.001 0)">
				<path id="Pfad_519" class="st0" d="M32.5,11.8c-0.9-5-4.9-11.4-15.6-11.4C8.7,0.4,1.6,6.1,1.6,14.1c0,6.3,4.4,11.2,11.6,12.6
					l5.9,1.1c2.8,0.5,4.6,2.1,4.6,4.3c0,2.7-2.3,4.5-6,4.5c-4.4,0.5-8.3-2.6-8.8-7c0-0.1,0-0.3,0-0.4L0,31.3
					C0.6,37.3,5.7,45,17.5,45c10.2,0,15.8-6.8,15.8-13.5c0-6.1-4.2-11.4-12.4-12.9l-5.7-1.1c-3-0.5-4.2-2.1-4.2-4.1
					c0.4-2.9,3-4.9,5.9-4.6l0,0c3.4-0.4,6.6,2,7.1,5.4L32.5,11.8z M59.6,56.3c9.5,0.6,18.1-5.7,20.3-15l-9.1-2.6
					c-1.4,5-6.1,8.4-11.2,8c-6.7,0.1-12.2-5.2-12.3-11.9c0-0.3,0-0.5,0-0.8c-0.5-6.7,4.5-12.6,11.2-13.1c0.3,0,0.7,0,1,0
					c5.1-0.4,9.8,3,10.9,8l9-2.8C78,20,72.3,11.7,59.5,11.7c-12-0.2-21.9,9.5-22.1,21.5c0,0.3,0,0.6,0,0.9
					C37,46,46.3,55.9,58.2,56.3C58.7,56.3,59.1,56.3,59.6,56.3 M93.9,34c-0.3-6.8,4.9-12.6,11.7-13s12.6,4.9,13,11.7
					c0,0.4,0,0.8,0,1.2c0.3,6.8-5,12.6-11.8,12.9s-12.6-5-12.9-11.8C93.9,34.7,93.9,34.3,93.9,34 M84.1,34c-0.3,12,9.1,21.9,21,22.3
					c0.4,0,0.8,0,1.3,0c11.9,0.3,21.9-9.1,22.2-21c0-0.4,0-0.8,0-1.2c0.4-12-9-22-21-22.3c-0.4,0-0.8,0-1.2,0
					c-12-0.3-21.9,9.1-22.3,21.1C84,33.2,84,33.6,84.1,34 M156.4,55.4h10.5l-8.7-17.3c5.2-1.7,8.6-6.6,8.4-12.1
					c0.2-7.2-5.5-13.2-12.7-13.4c-0.4,0-0.8,0-1.2,0h-17v42.8h9.5V39.5h3.4L156.4,55.4z M145.3,31.3V20.9h5.6c3.9,0,6,2,6,5.2
					c0,3-2.1,5.2-6,5.2L145.3,31.3z M206.6,21.7v-9.1h-35.9v9.1h13.2v33.7h9.5V21.7H206.6z M239.1,55.4v-9h-17.6v-8.2h15.9v-8.4
					h-15.9v-8.2H239v-9h-27.1v42.8L239.1,55.4z M283.3,12.6h-11.2l-8.5,13.9l-8.4-13.9h-11.5L257.6,34l-13.8,21.4H255l8.4-13.9
					l8.5,13.9h11.6l-13.9-21.3L283.3,12.6z"/>
			</g>
			<g id="Gruppe_1758" transform="translate(0.579 18.428)">
				<g>
					<path id="Pfad_520_1_" class="st0" d="M32.3,33.8H1.1"/>
					<rect x="1.1" y="31" class="st0" width="31.3" height="5.6"/>
				</g>
			</g>
		</g>
	</g>
</g>
</svg>
