<?xml version="1.0" encoding="utf-8"?>
<!-- Generator: Adobe Illustrator 23.0.2, SVG Export Plug-In . SVG Version: 6.00 Build 0)  -->
<svg version="1.1" id="Ebene_1" xmlns="http://www.w3.org/2000/svg" xmlns:xlink="http://www.w3.org/1999/xlink" x="0px" y="0px"
	 viewBox="0 0 283.46 56.69" style="enable-background:new 0 0 283.46 56.69;" xml:space="preserve">
<style type="text/css">
	.st0{fill:#FFFFFF;}
</style>
<g id="Gruppe_1760" transform="translate(0 9.89)">
	<g>
		<g id="Gruppe_1759" transform="translate(0 -9.89)">
			<g id="Gruppe_1757" transform="translate(0.001 0)">
				<path id="Pfad_519" class="st0" d="M32.53,11.79C31.63,6.78,27.59,0.38,16.9,0.38c-8.22,0-15.34,5.68-15.34,13.76
					c0,6.34,4.41,11.17,11.65,12.56l5.86,1.09c2.84,0.54,4.6,2.11,4.6,4.29c0,2.66-2.29,4.47-6.04,4.47
					c-4.37,0.51-8.32-2.61-8.83-6.97c-0.02-0.13-0.03-0.26-0.04-0.4L0,31.3C0.6,37.34,5.67,45,17.51,45
					c10.2,0,15.82-6.82,15.82-13.51c0-6.1-4.22-11.35-12.37-12.86l-5.74-1.09c-2.96-0.54-4.22-2.05-4.22-4.11
					c0.35-2.88,2.97-4.94,5.85-4.59c0,0,0,0,0,0c3.43-0.4,6.57,1.97,7.13,5.37L32.53,11.79z M59.58,56.31
					c9.5,0.56,18.05-5.73,20.34-14.97l-9.11-2.6c-1.36,5-6.06,8.36-11.23,8.04c-6.69,0.13-12.21-5.19-12.33-11.88
					c0-0.26,0-0.53,0.01-0.79c-0.51-6.71,4.51-12.57,11.23-13.08c0.32-0.02,0.65-0.04,0.97-0.04c5.12-0.42,9.77,2.97,10.93,7.97
					l9.01-2.84c-1.4-6.16-7.08-14.43-19.94-14.43c-12.03-0.17-21.93,9.45-22.1,21.48c0,0.31,0,0.61,0.01,0.92
					c-0.39,11.88,8.94,21.83,20.82,22.22C58.66,56.32,59.13,56.32,59.58,56.31 M93.94,33.97C93.6,27.15,98.85,21.34,105.67,21
					c6.82-0.34,12.63,4.91,12.97,11.73c0.02,0.41,0.02,0.83,0,1.24c0.31,6.82-4.97,12.6-11.79,12.91
					c-6.82,0.31-12.6-4.97-12.91-11.79C93.92,34.72,93.92,34.34,93.94,33.97 M84.05,34.03c-0.35,11.96,9.06,21.93,21.02,22.28
					c0.42,0.01,0.84,0.01,1.26,0c11.95,0.32,21.9-9.1,22.22-21.05c0.01-0.41,0.01-0.82,0-1.23c0.38-11.95-9.01-21.95-20.96-22.33
					c-0.42-0.01-0.83-0.01-1.25,0c-11.97-0.34-21.94,9.09-22.28,21.06C84.04,33.18,84.04,33.6,84.05,34.03 M156.37,55.4h10.5
					l-8.69-17.33c5.19-1.7,8.63-6.62,8.45-12.07c0.2-7.21-5.48-13.22-12.69-13.42c-0.39-0.01-0.79,0-1.18,0.02h-16.97v42.79h9.53
					V39.46h3.38L156.37,55.4z M145.31,31.26V20.87h5.63c3.92,0,6.03,1.99,6.03,5.19c0,3.02-2.11,5.2-6.04,5.2L145.31,31.26z
					 M206.57,21.71V12.6h-35.92v9.11h13.17v33.7h9.53v-33.7H206.57z M239.11,55.4v-9.05h-17.63v-8.22h15.94v-8.39h-15.94v-8.16
					h17.57V12.6h-27.1v42.79L239.11,55.4z M283.34,12.61h-11.17l-8.45,13.89l-8.45-13.89h-11.49l13.83,21.37l-13.83,21.43h11.23
					l8.39-13.89l8.45,13.89h11.59L269.57,34.1L283.34,12.61z"/>
			</g>
			<g id="Gruppe_1758" transform="translate(0.579 18.428)">
				<g>
					<path id="Pfad_520_1_" class="st0" d="M32.31,33.84H1.06"/>
					<rect x="1.06" y="31.02" class="st0" width="31.25" height="5.63"/>
				</g>
			</g>
		</g>
	</g>
</g>
</svg>
