<?xml version="1.0" encoding="utf-8"?>
<!-- Generator: Adobe Illustrator 23.0.3, SVG Export Plug-In . SVG Version: 6.00 Build 0)  -->
<svg version="1.1" id="Ebene_1" xmlns="http://www.w3.org/2000/svg" xmlns:xlink="http://www.w3.org/1999/xlink" x="0px" y="0px"
	 viewBox="0 0 566.9 107.1" style="enable-background:new 0 0 566.9 107.1;" xml:space="preserve">
<style type="text/css">
	.st0{enable-background:new    ;}
	.st1{fill:#FFFFFF;}
</style>
<g id="Gruppe_1797" transform="translate(-231 -297.646)">
	<g class="st0">
		<path class="st1" d="M319.2,319.2c4.3,0,7.6,3.4,7.6,7.7c0,4.1-3.3,7.5-7.6,7.5c-4.2,0-7.6-3.4-7.6-7.5
			C311.6,322.6,315,319.2,319.2,319.2z M313.1,387.2v-45.5h12.3v45.5H313.1z"/>
		<path class="st1" d="M345.2,372.3c0.3,3.6,3,6.9,8.3,6.9c4.1,0,6-2.1,6-4.5c0-2-1.4-3.7-4.9-4.4l-6-1.4
			c-8.8-1.9-12.8-7.2-12.8-13.6c0-8.1,7.2-14.9,17-14.9c12.9,0,17.3,8.2,17.8,13.1l-10.3,2.3c-0.4-2.7-2.3-6.1-7.5-6.1
			c-3.2,0-5.8,1.9-5.8,4.5c0,2.2,1.7,3.6,4.2,4.1l6.5,1.4c9,1.8,13.5,7.3,13.5,14c0,7.4-5.7,15-17.6,15c-13.7,0-18.4-8.9-18.9-14
			L345.2,372.3z"/>
		<path class="st1" d="M418.6,336.8v5h10.3v10.5h-10.3v34.9h-12.4v-34.9h-7.6v-10.5h7.6v-5.2c0-10.3,6.5-16.9,16.5-16.9
			c2.6,0,5.1,0.5,6.1,0.9V331c-0.6-0.2-1.8-0.5-3.9-0.5C422.2,330.5,418.6,331.7,418.6,336.8z"/>
		<path class="st1" d="M480.1,364.5c0,14-10.3,24.1-23.8,24.1c-13.6,0-23.8-10.2-23.8-24.1c0-14,10.3-24.1,23.8-24.1
			C469.8,340.4,480.1,350.5,480.1,364.5z M467.8,364.5c0-8.6-5.5-12.9-11.6-12.9c-6,0-11.6,4.3-11.6,12.9c0,8.5,5.5,12.9,11.6,12.9
			C462.2,377.4,467.8,373.1,467.8,364.5z"/>
		<path class="st1" d="M517.5,354c-1.4-0.3-2.6-0.4-3.7-0.4c-6.3,0-11.7,3.1-11.7,12.8v20.8h-12.3v-45.5h11.9v6.7
			c2.8-6,9.1-7.1,12.9-7.1c1,0,1.9,0.1,2.9,0.2V354z"/>
		<path class="st1" d="M555.4,372.3c0.3,3.6,3,6.9,8.3,6.9c4.1,0,6-2.1,6-4.5c0-2-1.4-3.7-4.9-4.4l-6-1.4
			c-8.8-1.9-12.8-7.2-12.8-13.6c0-8.1,7.2-14.9,17-14.9c12.9,0,17.3,8.2,17.8,13.1l-10.3,2.3c-0.4-2.7-2.3-6.1-7.5-6.1
			c-3.2,0-5.8,1.9-5.8,4.5c0,2.2,1.7,3.6,4.2,4.1l6.5,1.4c9,1.8,13.5,7.3,13.5,14c0,7.4-5.7,15-17.6,15c-13.7,0-18.4-8.9-18.9-14
			L555.4,372.3z"/>
		<path class="st1" d="M620.3,382.3c-2.5,4.3-7.8,6.1-12.6,6.1c-11,0-17.3-8-17.3-17.9v-28.7h12.3V368c0,5.1,2.6,9.1,8.3,9.1
			c5.5,0,8.6-3.7,8.6-9v-26.4H632V379c0,3.5,0.3,6.7,0.5,8.2h-11.7C620.5,386.3,620.3,384.2,620.3,382.3z"/>
		<path class="st1" d="M645.1,404.8v-63H657v5.5c2-3.5,7.1-6.6,14-6.6c13.3,0,21,10.2,21,23.7c0,13.8-8.6,23.9-21.4,23.9
			c-6.3,0-10.9-2.5-13.1-5.5v22H645.1z M668.6,351.7c-6.3,0-11.4,4.7-11.4,12.8s5.1,12.8,11.4,12.8c6.3,0,11.3-4.7,11.3-12.8
			C679.8,356.5,674.8,351.7,668.6,351.7z"/>
		<path class="st1" d="M742.4,374.2c-2.3,7.9-9.5,14.4-20.7,14.4c-12.5,0-23.5-9-23.5-24.3c0-14.5,10.7-23.9,22.4-23.9
			c14,0,22.5,9,22.5,23.6c0,1.8-0.2,3.6-0.2,3.8h-32.5c0.3,6,5.4,10.3,11.5,10.3c5.7,0,8.9-2.9,10.3-6.9L742.4,374.2z M730.9,359.3
			c-0.2-4.5-3.1-9-10.2-9c-6.4,0-9.9,4.8-10.2,9H730.9z"/>
		<path class="st1" d="M780.5,354c-1.4-0.3-2.6-0.4-3.7-0.4c-6.3,0-11.7,3.1-11.7,12.8v20.8h-12.3v-45.5h11.9v6.7
			c2.8-6,9.1-7.1,12.9-7.1c1,0,1.9,0.1,2.9,0.2V354z"/>
		<path class="st1" d="M789.4,371.1c4.7,0,8.5,3.8,8.5,8.4c0,4.6-3.8,8.4-8.5,8.4c-4.6,0-8.4-3.8-8.4-8.4
			C781,374.8,784.8,371.1,789.4,371.1z"/>
	</g>
	<g id="Gruppe_1778" transform="translate(231 301.612)">
		<g>
			<g id="Gruppe_1777" transform="translate(0 0)">
				<g id="Gruppe_1776" transform="translate(0.001 0)">
					<path id="Pfad_544" class="st1" d="M52.6,14.5C51.1,6.4,44.6-4,27.3-4C14-4,2.5,5.2,2.5,18.3c0,10.3,7.1,18.1,18.8,20.3
						l9.5,1.8c4.6,0.9,7.4,3.4,7.4,6.9c0,4.3-3.7,7.2-9.8,7.2c-9.5,0-13.8-5.6-14.4-11.9L0,46c1,9.8,9.2,22.2,28.3,22.2
						c16.5,0,25.6-11,25.6-21.9c0-9.9-6.8-18.4-20-20.8l-9.3-1.8c-4.8-0.9-6.8-3.3-6.8-6.6c0-3.8,3.7-7.4,9.5-7.4
						c8.4,0,11,5.5,11.5,8.7L52.6,14.5z"/>
				</g>
			</g>
		</g>
		<path id="Pfad_546" class="st1" d="M2.6,85.4h50.5v-11H2.6V85.4z"/>
	</g>
</g>
</svg>
