<?xml version="1.0" encoding="utf-8"?>
<!-- Generator: Adobe Illustrator 23.0.2, SVG Export Plug-In . SVG Version: 6.00 Build 0)  -->
<svg version="1.1" id="Ebene_1" xmlns="http://www.w3.org/2000/svg" xmlns:xlink="http://www.w3.org/1999/xlink" x="0px" y="0px"
	 viewBox="0 0 28.35 28.35" style="enable-background:new 0 0 28.35 28.35;" xml:space="preserve">
<style type="text/css">
	.st0{fill:none;}
	.st1{fill:#7700FF;}
</style>
<g id="Gruppe_1844" transform="translate(692 2686) rotate(180)">
	<g id="Ellipse_106" transform="translate(652 2646)">
		<circle class="st0" cx="25.83" cy="25.83" r="14.17"/>
		<path class="st1" d="M25.83,11.65c7.81,0,14.17,6.36,14.17,14.17C40,33.64,33.64,40,25.83,40s-14.17-6.36-14.17-14.17
			C11.65,18.01,18.01,11.65,25.83,11.65z M25.83,38.58c7.03,0,12.76-5.72,12.76-12.76c0-7.03-5.72-12.76-12.76-12.76
			s-12.76,5.72-12.76,12.76C13.07,32.86,18.79,38.58,25.83,38.58z"/>
	</g>
	<path class="st1" d="M672.31,2677.17c3.04,3.04,8,3.04,11.04,0l1,1c-3.6,3.6-9.45,3.6-13.05,0L672.31,2677.17z"/>
	<circle id="Ellipse_107" class="st1" cx="672.37" cy="2669.1" r="1.9"/>
	<circle id="Ellipse_108" class="st1" cx="683.28" cy="2669.1" r="1.9"/>
</g>
</svg>
