<?xml version="1.0" encoding="utf-8"?>
<!-- Generator: Adobe Illustrator 23.0.2, SVG Export Plug-In . SVG Version: 6.00 Build 0)  -->
<svg version="1.1" id="Ebene_1" xmlns="http://www.w3.org/2000/svg" xmlns:xlink="http://www.w3.org/1999/xlink" x="0px" y="0px"
	 viewBox="0 0 28.63 28.63" style="enable-background:new 0 0 28.63 28.63;" xml:space="preserve">
<style type="text/css">
	.st0{fill:#82FFFF;}
	.st1{fill:#FFFFFF;}
</style>
<g id="Gruppe_39" transform="translate(1016 -816)">
	<circle id="Ellipse_58" class="st0" cx="-1001.76" cy="830.35" r="14.17"/>
	<path class="st1" d="M-997.74,838.46c-2.28,0-5.29-1.53-7.95-4.19c-3.41-3.41-4.95-7.6-3.67-9.9l-0.01,0
		c0.07-0.15,0.16-0.29,0.28-0.41l1.25-1.26c0.79-0.68,1.93-0.6,2.58,0.14l2.22,2.22c0.7,0.62,0.78,1.76,0.14,2.5l-1.31,1.31
		c0.55,0.76,1.15,1.46,1.8,2.11c0.66,0.66,1.37,1.26,2.12,1.8l1.27-1.27c0.79-0.68,1.93-0.6,2.58,0.13l2.22,2.21
		c0.7,0.63,0.78,1.77,0.14,2.51l-1.29,1.3c-0.1,0.1-0.22,0.19-0.34,0.25C-996.28,838.29-996.97,838.46-997.74,838.46z M-1008,824.99
		L-1008,824.99c-0.93,1.42,0.19,5.06,3.37,8.23c3.28,3.28,6.77,4.34,8.13,3.44l0.1-0.06l1.23-1.24c0.08-0.09,0.06-0.3-0.07-0.41
		l-2.28-2.27c-0.15-0.16-0.35-0.18-0.49-0.06l-1.41,1.42c-0.46,0.42-1.11,0.44-1.57,0.09c-0.86-0.6-1.7-1.31-2.47-2.08
		c-0.77-0.76-1.47-1.6-2.09-2.49c-0.33-0.44-0.31-1.08,0.08-1.51l1.48-1.48c0.07-0.09,0.06-0.29-0.07-0.41l-2.28-2.28
		c-0.15-0.16-0.35-0.18-0.49-0.06L-1008,824.99z M-1000.12,832.91c0.01,0,0.01,0.01,0.01,0.01
		C-1000.11,832.92-1000.12,832.91-1000.12,832.91z M-1004.34,828.67c0,0.01,0.01,0.01,0.01,0.02
		C-1004.34,828.69-1004.34,828.68-1004.34,828.67z"/>
</g>
</svg>
